<svg xmlns="http://www.w3.org/2000/svg" width="240.97" height="238.33" viewBox="0 0 240.97 238.33"><title>projects_bg</title><g opacity="0.08"><path d="M36.37,48.38a7.82,7.82,0,0,0-10.63-1,8.07,8.07,0,0,0-3,6.45l-.11,0-.29.08a2.23,2.23,0,0,0-.43.16l-.15.06-.28.15-.12.07a3.62,3.62,0,0,0-.38.26,4.11,4.11,0,0,0-.68,5.77l.11.13h0a6.31,6.31,0,0,0,.81,6.2,5.86,5.86,0,0,0,8.23,1l8.77-6.93.11-.09,0,0,0,0,.12-.08L42,57.75A5.5,5.5,0,0,0,42.93,50,5.62,5.62,0,0,0,36.37,48.38ZM41.46,57,38,59.81l-.06,0-.1.07-.07.06-.06.06L28.89,67a5,5,0,0,1-6.95-.82,5.43,5.43,0,0,1-.6-5.49l.13-.25-.18-.23a.71.71,0,0,1-.1-.14L21.14,60l-.06-.07L21,59.82a3.19,3.19,0,0,1,.52-4.48,3,3,0,0,1,.44-.29l.34-.16,0,0,.39-.12.11,0A3.19,3.19,0,0,1,26,55.86a.45.45,0,1,0,.71-.56,4.06,4.06,0,0,0-3.08-1.55,7.2,7.2,0,0,1,2.66-5.67,6.88,6.88,0,0,1,9.24.77,8.56,8.56,0,0,0-1.43,1.2.46.46,0,0,0,.67.62,8.59,8.59,0,0,1,1.68-1.33,4.67,4.67,0,0,1,5.74,1.27A4.57,4.57,0,0,1,41.46,57Z" transform="translate(-6.75 -8.23)" fill="#303030"/></g><g opacity="0.08"><path d="M235.34,61.51a7.82,7.82,0,0,0-9.08-5.62,8,8,0,0,0-5.55,4.45l-.12,0-.29-.06-.46,0h-.62l-.46.07a4.11,4.11,0,0,0-3.16,4.87,1.09,1.09,0,0,0,.05.17h0a6.3,6.3,0,0,0-2,5.91,5.87,5.87,0,0,0,7,4.52l10.94-2.33.13,0h.09l.14,0,4.37-.93a5.5,5.5,0,0,0,4.23-6.51A5.62,5.62,0,0,0,235.34,61.51Zm.72,10-4.37.93-.08,0-.12,0-.09,0-.07,0-10.94,2.33a5,5,0,0,1-5.87-3.81,5.44,5.44,0,0,1,1.9-5.19l.23-.17-.06-.29,0-.17v-.07l0-.09,0-.11A3.21,3.21,0,0,1,219,61.17a4.78,4.78,0,0,1,.53-.06h.42l.4.07.1,0a3.19,3.19,0,0,1,2.34,2.43.46.46,0,0,0,.54.35.44.44,0,0,0,.35-.54,4.09,4.09,0,0,0-2.08-2.76,7.25,7.25,0,0,1,4.9-3.9,6.9,6.9,0,0,1,8,4.79,8.23,8.23,0,0,0-1.81.44.45.45,0,0,0,.32.85,8,8,0,0,1,2.09-.44,4.67,4.67,0,0,1,4.59,3.68A4.58,4.58,0,0,1,236.06,71.52Z" transform="translate(-6.75 -8.23)" fill="#303030"/></g><g opacity="0.08"><path d="M77.73,196.38a7.81,7.81,0,0,0-7.23-7.86A8,8,0,0,0,64,191.31l-.11-.05-.26-.14a3.83,3.83,0,0,0-.43-.17l-.16,0-.31-.08-.13,0a3.62,3.62,0,0,0-.46-.06,4.11,4.11,0,0,0-4.35,3.84,1.09,1.09,0,0,0,0,.18h0a6.3,6.3,0,0,0-3.53,5.16,5.87,5.87,0,0,0,5.48,6.21l11.16.7h.23l.14,0,4.46.28A5.49,5.49,0,0,0,81.5,202,5.6,5.6,0,0,0,77.73,196.38Zm-2,9.84-4.46-.28H71.2l-.13,0H70.9l-11.15-.7A5,5,0,0,1,55.12,200a5.42,5.42,0,0,1,3.22-4.48l.27-.11,0-.28c0-.06,0-.12,0-.18v-.17a.45.45,0,0,1,0-.11,3.2,3.2,0,0,1,3.38-3,4.34,4.34,0,0,1,.52.08l.36.11h0l.38.17.09.06a3.2,3.2,0,0,1,1.6,3,.46.46,0,0,0,.43.49.46.46,0,0,0,.48-.43,4.12,4.12,0,0,0-1.26-3.22,7.22,7.22,0,0,1,5.77-2.44,6.89,6.89,0,0,1,6.36,6.75,9,9,0,0,0-1.86-.06.45.45,0,0,0-.41.5A.47.47,0,0,0,75,197a8.55,8.55,0,0,1,2.13.13,4.68,4.68,0,0,1,3.43,4.78A4.58,4.58,0,0,1,75.74,206.22Z" transform="translate(-6.75 -8.23)" fill="#303030"/></g><g opacity="0.08"><path d="M226,194.35a7.81,7.81,0,0,0-9.07-5.62,8,8,0,0,0-5.56,4.45l-.11,0-.29-.06-.46-.05h-.62l-.46.07a4.11,4.11,0,0,0-3.16,4.87c0,.06,0,.11,0,.17h0a6.31,6.31,0,0,0-2,5.92,5.87,5.87,0,0,0,6.95,4.51l10.93-2.32.14,0h.09l.14,0,4.37-.93a5.5,5.5,0,0,0,4.23-6.51A5.63,5.63,0,0,0,226,194.35Zm.73,10-4.37.93h-.08l-.12,0-.09,0-.08,0L211,207.7a5,5,0,0,1-5.87-3.81,5.42,5.42,0,0,1,1.9-5.19l.23-.17-.06-.28a1.13,1.13,0,0,1,0-.18V198l0-.09,0-.11A3.21,3.21,0,0,1,209.6,194a4.6,4.6,0,0,1,.52-.06h.42a2.9,2.9,0,0,1,.41.06l.1,0a3.18,3.18,0,0,1,2.34,2.42.44.44,0,0,0,.54.35.46.46,0,0,0,.35-.54,4.09,4.09,0,0,0-2.08-2.76,7.23,7.23,0,0,1,4.9-3.9,6.88,6.88,0,0,1,7.94,4.79,8.37,8.37,0,0,0-1.81.44.46.46,0,0,0,.32.86,8.36,8.36,0,0,1,2.09-.45,4.66,4.66,0,0,1,4.59,3.68A4.58,4.58,0,0,1,226.71,204.37Z" transform="translate(-6.75 -8.23)" fill="#303030"/></g><g opacity="0.08"><path d="M62.4,128.31l-18-9.17a.23.23,0,0,0-.3.1l-6.32,12.4a.23.23,0,0,0,.1.3l18,9.17a.22.22,0,0,0,.3-.09l6.32-12.4A.24.24,0,0,0,62.4,128.31Zm-3.86.05-8.18,1.34-3.73-7.4ZM55.3,138.8l-15.2-7.74,4.49-8.82,4.69,9.29a.21.21,0,0,0,.23.12L59.79,130,55.3,138.8Z" transform="translate(-6.75 -8.23)" fill="#303030"/></g><g opacity="0.08"><path d="M156.7,181.65,138.79,191a.22.22,0,0,0-.09.3l6.44,12.34a.22.22,0,0,0,.3.09l17.91-9.35a.22.22,0,0,0,.09-.3L157,181.75A.22.22,0,0,0,156.7,181.65Zm-2.2,3.17-3.65,7.44-8.2-1.25Zm6.62,8.7L146,201.42l-4.58-8.78,10.29,1.57a.22.22,0,0,0,.24-.12l4.59-9.34,4.58,8.77Z" transform="translate(-6.75 -8.23)" fill="#303030"/></g><g opacity="0.08"><path d="M147.37,112.72l-20.14-1.52a.22.22,0,0,0-.24.21l-1,13.87a.22.22,0,0,0,.21.24l20.14,1.53a.23.23,0,0,0,.24-.21L147.58,113A.22.22,0,0,0,147.37,112.72Zm-3.54,1.54-7,4.38-6.3-5.39Zm1,10.88-17-1.29.75-9.87,7.91,6.77a.21.21,0,0,0,.26,0l8.84-5.5-.75,9.87Z" transform="translate(-6.75 -8.23)" fill="#303030"/></g><g opacity="0.08"><path d="M137.22,90.79a1.9,1.9,0,0,0,1.42-1.71l5.27-1.32.32,1.27,3.8-1-.32-1.27L153,85.49a1.88,1.88,0,1,0-.26-1.27l-5.32,1.33-.32-1.27-.94.23,2.55-10.86-1.39-.56A3.88,3.88,0,0,1,145,70.44l-.13-.54,1.84-.46-.9-3.61-10.06,2.52.9,3.6,1.85-.46.13.55a3.85,3.85,0,0,1-.79,3.42l-1,1.15L144.22,85l-.95.24.32,1.27-5.32,1.33a1.88,1.88,0,1,0-1.05,3Zm17.22-6.85a.59.59,0,0,1,.71.42.58.58,0,0,1-.43.71.57.57,0,0,1-.7-.42A.59.59,0,0,1,154.44,83.94ZM137.3,69.29l7.55-1.89.27,1.09-7.55,1.89-.27-1.09Zm9.16,17.85-1.29.32-.32-1.29,1.29-.32Zm-3-9.33A.7.7,0,1,1,144,77,.71.71,0,0,1,143.44,77.81Zm-4.63-1.51a5.19,5.19,0,0,0,1.06-4.58l-.13-.5,3.86-1,.13.51a5.18,5.18,0,0,0,3.09,3.54l.35.14-1.89,8-.92-3.69a2,2,0,1,0-3-1.19,2,2,0,0,0,1.76,1.51L144,82.8l-5.46-6.21Zm-2.19,12.1a.58.58,0,1,1,.28,1.13.58.58,0,0,1-.28-1.13Z" transform="translate(-6.75 -8.23)" fill="#303030"/></g><g opacity="0.08"><path d="M231.58,140.74a1.91,1.91,0,0,0-.55-2.16l2-5,1.22.49,1.47-3.64-1.22-.49,2-5a1.88,1.88,0,0,0,.85-3.62,1.88,1.88,0,0,0-2,3.07l-2.06,5.09-1.22-.49-.36.9-7.28-8.45-1.27.8a3.87,3.87,0,0,1-3.5.31l-.53-.21.72-1.76-3.45-1.4-3.88,9.62,3.44,1.39.71-1.76.53.21a3.89,3.89,0,0,1,2.3,2.66l.35,1.45,11.12-1-.37.9,1.22.49-2.06,5.09a1.88,1.88,0,1,0,1.78,2.59Zm4.59-18a.58.58,0,1,1,.32.76A.59.59,0,0,1,236.17,122.78ZM214.24,128l2.92-7.21,1,.42-2.92,7.21-1-.42Zm19.82,3.1-.5,1.23-1.23-.5.5-1.23Zm-9.32-3.05a.7.7,0,1,1-.38-.91A.71.71,0,0,1,224.74,128.07Zm-3.94,2.86a5.18,5.18,0,0,0-3.08-3.55l-.48-.2,1.49-3.68.48.19a5.17,5.17,0,0,0,4.68-.42l.32-.2,5.4,6.27-3.53-1.43a2,2,0,1,0-2.73,1.75,2,2,0,0,0,2.25-.54l3.52,1.42-8.23.76Zm8.49,8.88a.59.59,0,0,1,.76-.32.58.58,0,1,1-.44,1.08A.59.59,0,0,1,229.29,139.81Z" transform="translate(-6.75 -8.23)" fill="#303030"/></g><g opacity="0.08"><path d="M114,240.86a1.9,1.9,0,0,0-1.29-1.82l.08-5.43,1.31,0,0-3.92-1.31,0,.08-5.43a1.88,1.88,0,1,0-2.42-1.82,1.87,1.87,0,0,0,1.12,1.74l-.07,5.49h-1.32v1l-9.85-5.25-.89,1.2a3.88,3.88,0,0,1-3.15,1.56H95.8l0-1.9-3.72,0L92,236.55l3.71,0,0-1.9h.56a3.85,3.85,0,0,1,3.11,1.64l.86,1.23,10-5v1l1.31,0-.08,5.49a1.86,1.86,0,0,0-1.17,1.71,1.88,1.88,0,1,0,3.76.06Zm-2.21-18.41a.59.59,0,0,1,1.17,0,.59.59,0,1,1-1.17,0ZM93.28,235.27l.11-7.78,1.12,0-.1,7.78-1.13,0Zm19.6-4.28,0,1.33-1.33,0,0-1.33Zm-9.79.53a.7.7,0,1,1-.69-.71A.71.71,0,0,1,103.09,231.52Zm-2.65,4.09a5.13,5.13,0,0,0-4.15-2.2h-.52l0-4h.53a5.18,5.18,0,0,0,4.21-2.09l.23-.3,7.29,3.89-3.8-.05a2,2,0,0,0-3.88.59,2,2,0,0,0,3.86.7l3.81,0-7.41,3.69Zm11.14,5.21a.58.58,0,1,1,.57.59A.57.57,0,0,1,111.58,240.82Z" transform="translate(-6.75 -8.23)" fill="#303030"/></g><g opacity="0.08"><path d="M233.06,241.7a1.9,1.9,0,0,0-.55-2.15l2-5,1.22.49,1.47-3.64-1.22-.49,2-5a1.89,1.89,0,0,0,1.89-1.17,1.88,1.88,0,1,0-3.07.63l-2.06,5.09-1.22-.49-.36.9L226,222.34l-1.27.8a3.88,3.88,0,0,1-3.5.32l-.53-.21.72-1.77-3.45-1.39L214,229.71l3.44,1.39.71-1.76.53.21a3.87,3.87,0,0,1,2.3,2.66l.35,1.45,11.12-1-.37.9,1.22.49-2.06,5.09a1.88,1.88,0,1,0,1.78,2.58Zm4.59-17.95a.58.58,0,0,1,.76-.32.57.57,0,0,1,.32.76.58.58,0,0,1-.76.32A.59.59,0,0,1,237.65,223.75ZM215.72,229l2.92-7.21,1,.42-2.92,7.21-1-.42Zm19.82,3.1-.5,1.23-1.23-.5.5-1.23ZM226.22,229a.7.7,0,0,1-.91.38.69.69,0,0,1-.38-.9.7.7,0,1,1,1.29.52Zm-3.94,2.86a5.2,5.2,0,0,0-3.08-3.56l-.48-.19,1.49-3.69.48.2a5.17,5.17,0,0,0,4.68-.42l.32-.2,5.4,6.27-3.53-1.43a2,2,0,1,0-.48,1.2l3.52,1.43-8.23.76Zm8.49,8.88a.58.58,0,1,1,.32.76A.59.59,0,0,1,230.77,240.78Z" transform="translate(-6.75 -8.23)" fill="#303030"/></g><g opacity="0.08"><path d="M31.27,30.43a.51.51,0,0,0-.63.34l-.27.84-5.29-1.77a.51.51,0,1,0-.32,1l5.78,1.94h.06a.53.53,0,0,0,.33,0,.53.53,0,0,0,.25-.3l.42-1.34A.5.5,0,0,0,31.27,30.43Z" transform="translate(-6.75 -8.23)" fill="#303030"/><path d="M28.48,13.86l-9.14-3.1a.5.5,0,0,0-.64.31L13.37,26.45a.5.5,0,0,0,0,.38.47.47,0,0,0,.29.26l5.17,1.73.06,0a.51.51,0,0,0,.58-.34.5.5,0,0,0-.32-.63L14.49,26.3l5-14.42,8.67,2.93a.49.49,0,0,0,.64-.31A.5.5,0,0,0,28.48,13.86Z" transform="translate(-6.75 -8.23)" fill="#303030"/><path d="M33.81,14.5a.51.51,0,0,0-.7-.15l-3,1.94A.51.51,0,0,0,30,17a.52.52,0,0,0,.32.22.47.47,0,0,0,.38-.07l3-1.94A.51.51,0,0,0,33.81,14.5Z" transform="translate(-6.75 -8.23)" fill="#303030"/><path d="M37.05,31.48l1.38-16.21a.5.5,0,0,0-.45-.55l-1.4-.13a.5.5,0,0,0-.54.46.5.5,0,0,0,.45.55l.9.08-1.3,15.21-16.67-1.6,1.76-15.11,12.35,1.14a.49.49,0,0,0,.55-.45.5.5,0,0,0-.45-.55L20.78,13.13a.5.5,0,0,0-.55.44L18.36,29.68a.48.48,0,0,0,.11.38.46.46,0,0,0,.28.17h.06l17.69,1.7a.49.49,0,0,0,.37-.12A.46.46,0,0,0,37.05,31.48Z" transform="translate(-6.75 -8.23)" fill="#303030"/><path d="M35.71,11.14a2.53,2.53,0,1,0,1.94,3A2.53,2.53,0,0,0,35.71,11.14Zm-.84,3.95a1.51,1.51,0,1,1,1.79-1.17A1.52,1.52,0,0,1,34.87,15.09Z" transform="translate(-6.75 -8.23)" fill="#303030"/></g><g opacity="0.08"><path d="M155.86,32.39a.51.51,0,0,0-.63.33l-.27.85-5.29-1.77a.5.5,0,0,0-.64.32.51.51,0,0,0,.32.64l5.78,1.93.05,0a.51.51,0,0,0,.59-.35l.42-1.34A.51.51,0,0,0,155.86,32.39Z" transform="translate(-6.75 -8.23)" fill="#303030"/><path d="M153.07,15.81l-9.14-3.09a.5.5,0,0,0-.64.31L138,28.4a.48.48,0,0,0,0,.39.55.55,0,0,0,.3.26l5.17,1.73h.05a.5.5,0,0,0,.59-.33.51.51,0,0,0-.32-.64l-4.69-1.57,5-14.42,8.67,2.94a.49.49,0,0,0,.64-.32A.51.51,0,0,0,153.07,15.81Z" transform="translate(-6.75 -8.23)" fill="#303030"/><path d="M158.4,16.46a.51.51,0,0,0-.7-.15l-3,1.94a.5.5,0,0,0-.15.7.52.52,0,0,0,.32.22.58.58,0,0,0,.38-.07l3-2A.5.5,0,0,0,158.4,16.46Z" transform="translate(-6.75 -8.23)" fill="#303030"/><path d="M161.64,33.44,163,17.23a.5.5,0,0,0-.45-.55l-1.4-.13a.5.5,0,1,0-.09,1l.89.09-1.29,15.2L144,31.24l1.75-15.1,12.36,1.14a.5.5,0,1,0,.09-1l-12.84-1.19a.5.5,0,0,0-.55.44l-1.88,16.11a.54.54,0,0,0,.11.37.53.53,0,0,0,.29.18h.06l17.69,1.7a.5.5,0,0,0,.37-.12A.52.52,0,0,0,161.64,33.44Z" transform="translate(-6.75 -8.23)" fill="#303030"/><path d="M160.29,13.1a2.52,2.52,0,1,0,2,3A2.52,2.52,0,0,0,160.29,13.1Zm-.84,4a1.52,1.52,0,1,1,1.8-1.17A1.52,1.52,0,0,1,159.45,17.05Z" transform="translate(-6.75 -8.23)" fill="#303030"/></g><g opacity="0.08"><path d="M65.46,102.5a.51.51,0,0,0-.63.33l-.27.85-5.29-1.77a.5.5,0,0,0-.64.32.51.51,0,0,0,.32.64l5.78,1.93,0,0a.51.51,0,0,0,.59-.35l.42-1.34A.51.51,0,0,0,65.46,102.5Z" transform="translate(-6.75 -8.23)" fill="#303030"/><path d="M62.67,85.92l-9.14-3.09a.5.5,0,0,0-.64.31L47.56,98.51a.53.53,0,0,0,0,.39.55.55,0,0,0,.3.26l5.17,1.73.05,0a.52.52,0,0,0,.59-.34.51.51,0,0,0-.32-.64l-4.69-1.57,5-14.42,8.67,2.94a.49.49,0,0,0,.64-.32A.5.5,0,0,0,62.67,85.92Z" transform="translate(-6.75 -8.23)" fill="#303030"/><path d="M68,86.57a.51.51,0,0,0-.7-.15l-3,1.94a.5.5,0,0,0-.15.7.51.51,0,0,0,.7.15l3-1.94A.51.51,0,0,0,68,86.57Z" transform="translate(-6.75 -8.23)" fill="#303030"/><path d="M71.24,103.55l1.38-16.21a.5.5,0,0,0-.45-.55l-1.4-.13a.51.51,0,0,0-.55.46.52.52,0,0,0,.46.55l.89.08L70.28,103l-16.67-1.6,1.76-15.1,12.35,1.14a.5.5,0,1,0,.09-1L55,85.2a.5.5,0,0,0-.55.44l-1.88,16.11a.54.54,0,0,0,.11.37.53.53,0,0,0,.29.18H53L70.69,104a.51.51,0,0,0,.55-.46Z" transform="translate(-6.75 -8.23)" fill="#303030"/><path d="M69.89,83.21a2.52,2.52,0,1,0,2,3A2.52,2.52,0,0,0,69.89,83.21Zm-.84,4A1.51,1.51,0,1,1,70.85,86,1.52,1.52,0,0,1,69.05,87.16Z" transform="translate(-6.75 -8.23)" fill="#303030"/></g><g opacity="0.08"><path d="M29.14,196.31a.51.51,0,0,0-.63.34l-.27.84L23,195.72a.51.51,0,1,0-.32,1l5.78,1.94h.06a.53.53,0,0,0,.33,0,.53.53,0,0,0,.25-.3l.42-1.34A.52.52,0,0,0,29.14,196.31Z" transform="translate(-6.75 -8.23)" fill="#303030"/><path d="M26.35,179.74l-9.14-3.1a.5.5,0,0,0-.64.31l-5.33,15.38a.5.5,0,0,0,0,.38.48.48,0,0,0,.3.26l5.17,1.73.05,0a.51.51,0,0,0,.59-.34.5.5,0,0,0-.32-.63l-4.69-1.57,5-14.42L26,180.69a.49.49,0,0,0,.64-.31A.5.5,0,0,0,26.35,179.74Z" transform="translate(-6.75 -8.23)" fill="#303030"/><path d="M31.68,180.38a.51.51,0,0,0-.7-.15l-3,1.94a.51.51,0,0,0-.15.7.52.52,0,0,0,.32.22.48.48,0,0,0,.38-.07l3-1.94A.51.51,0,0,0,31.68,180.38Z" transform="translate(-6.75 -8.23)" fill="#303030"/><path d="M34.92,197.36l1.38-16.21a.5.5,0,0,0-.45-.55l-1.4-.13a.51.51,0,1,0-.09,1l.9.08L34,196.77l-16.67-1.6,1.76-15.11L31.4,181.2a.49.49,0,0,0,.55-.45.5.5,0,0,0-.46-.55L18.65,179a.5.5,0,0,0-.55.44l-1.88,16.11a.57.57,0,0,0,.11.38.51.51,0,0,0,.29.17h.06l17.69,1.7a.51.51,0,0,0,.55-.46Z" transform="translate(-6.75 -8.23)" fill="#303030"/><path d="M33.57,177a2.52,2.52,0,1,0,2,3A2.52,2.52,0,0,0,33.57,177ZM32.73,181a1.51,1.51,0,1,1,1.8-1.17A1.52,1.52,0,0,1,32.73,181Z" transform="translate(-6.75 -8.23)" fill="#303030"/></g><g opacity="0.08"><path d="M143.94,165.6a.49.49,0,0,0-.63.33l-.27.85L137.75,165a.51.51,0,0,0-.63.32.5.5,0,0,0,.31.64l5.78,1.94h.06a.47.47,0,0,0,.33,0,.5.5,0,0,0,.25-.3l.42-1.34A.49.49,0,0,0,143.94,165.6Z" transform="translate(-6.75 -8.23)" fill="#303030"/><path d="M141.15,149l-9.14-3.1a.5.5,0,0,0-.64.32L126,161.61a.53.53,0,0,0,0,.39.48.48,0,0,0,.29.25l5.17,1.73.06,0a.51.51,0,0,0,.58-.33.5.5,0,0,0-.32-.64l-4.69-1.57,5-14.42,8.67,2.93a.49.49,0,0,0,.64-.31A.5.5,0,0,0,141.15,149Z" transform="translate(-6.75 -8.23)" fill="#303030"/><path d="M146.48,149.66a.51.51,0,0,0-.7-.15l-3,2a.5.5,0,0,0-.15.69.49.49,0,0,0,.32.22.47.47,0,0,0,.38-.07l3-1.94A.51.51,0,0,0,146.48,149.66Z" transform="translate(-6.75 -8.23)" fill="#303030"/><path d="M149.72,166.64l1.39-16.21a.52.52,0,0,0-.46-.55l-1.4-.12a.49.49,0,0,0-.54.45.5.5,0,0,0,.45.55l.9.08-1.3,15.21-16.67-1.6,1.76-15.11,12.35,1.15a.51.51,0,0,0,.55-.46.5.5,0,0,0-.45-.55l-12.85-1.19a.52.52,0,0,0-.55.45L131,164.84a.48.48,0,0,0,.11.38.46.46,0,0,0,.28.17h.06l17.69,1.7a.53.53,0,0,0,.37-.11A.48.48,0,0,0,149.72,166.64Z" transform="translate(-6.75 -8.23)" fill="#303030"/><path d="M148.38,146.3a2.53,2.53,0,1,0,1.94,3A2.54,2.54,0,0,0,148.38,146.3Zm-.84,3.95a1.51,1.51,0,1,1,1.79-1.16A1.51,1.51,0,0,1,147.54,150.25Z" transform="translate(-6.75 -8.23)" fill="#303030"/></g><g opacity="0.08"><path d="M67.39,15.72,63.3,17.21a.43.43,0,0,0-.26.56.44.44,0,0,0,.56.26l4.09-1.49a.44.44,0,1,0-.3-.82Z" transform="translate(-6.75 -8.23)" fill="#303030"/><path d="M70.26,14.68l-.41.15a.43.43,0,1,0,.3.81l.41-.14a.45.45,0,0,0,.26-.56A.43.43,0,0,0,70.26,14.68Z" transform="translate(-6.75 -8.23)" fill="#303030"/><path d="M73,35.93l-1,.37a1.21,1.21,0,0,0-.72,1.54l.07.2a1.21,1.21,0,0,0,1.54.72l1-.37a1.21,1.21,0,0,0,.72-1.54l-.07-.2A1.21,1.21,0,0,0,73,35.93Zm.79,1.21a.34.34,0,0,1-.2.43l-1,.37a.34.34,0,0,1-.43-.2l-.07-.2a.33.33,0,0,1,.2-.42l1-.37a.34.34,0,0,1,.43.2Z" transform="translate(-6.75 -8.23)" fill="#303030"/><path d="M70.38,13.24l-11,4a1.57,1.57,0,0,0-.94,2l7.86,21.6a1.57,1.57,0,0,0,2,.94l11-4a1.58,1.58,0,0,0,.94-2L72.4,14.18A1.59,1.59,0,0,0,70.38,13.24Zm9.06,22.84A.71.71,0,0,1,79,37l-11,4a.71.71,0,0,1-.9-.42L59.3,19a.69.69,0,0,1,.42-.9l11-4a.71.71,0,0,1,.9.42l7.86,21.6Z" transform="translate(-6.75 -8.23)" fill="#303030"/><path d="M72.34,15.31l-13.1,4.77a.44.44,0,0,0-.26.56l6.26,17.19a.43.43,0,0,0,.56.26l13.1-4.77a.43.43,0,0,0,.26-.56L72.9,15.57A.43.43,0,0,0,72.34,15.31Zm5.85,17.34L65.91,37.12,60,20.75l12.28-4.47Z" transform="translate(-6.75 -8.23)" fill="#303030"/></g><g opacity="0.08"><path d="M211,11.81l-4.24-1a.42.42,0,0,0-.52.32.43.43,0,0,0,.32.52l4.23,1a.45.45,0,0,0,.53-.32A.44.44,0,0,0,211,11.81Z" transform="translate(-6.75 -8.23)" fill="#303030"/><path d="M214,12.53l-.42-.1a.43.43,0,1,0-.21.84l.43.1a.43.43,0,0,0,.2-.84Z" transform="translate(-6.75 -8.23)" fill="#303030"/><path d="M204.49,31.75l-1.05-.25a1.2,1.2,0,0,0-1.45.88l-.05.21a1.21,1.21,0,0,0,.89,1.45l1,.25a1.2,1.2,0,0,0,1.45-.88l0-.21A1.21,1.21,0,0,0,204.49,31.75Zm0,1.45a.33.33,0,0,1-.4.25L203,33.19a.33.33,0,0,1-.24-.4l.05-.2a.33.33,0,0,1,.4-.25l1,.26a.33.33,0,0,1,.24.4Z" transform="translate(-6.75 -8.23)" fill="#303030"/><path d="M214.86,11.4,203.52,8.66a1.57,1.57,0,0,0-1.9,1.16l-5.4,22.34a1.58,1.58,0,0,0,1.16,1.91l11.33,2.74a1.58,1.58,0,0,0,1.9-1.16L216,13.3A1.58,1.58,0,0,0,214.86,11.4Zm-5.09,24a.7.7,0,0,1-.85.52l-11.34-2.74a.71.71,0,0,1-.52-.85L202.47,10a.7.7,0,0,1,.85-.51l11.33,2.74a.7.7,0,0,1,.52.85l-5.4,22.34Z" transform="translate(-6.75 -8.23)" fill="#303030"/><path d="M215.35,14.21,201.8,10.93a.44.44,0,0,0-.53.32L197,29a.44.44,0,0,0,.32.52l13.55,3.28a.44.44,0,0,0,.53-.32l4.3-17.79A.43.43,0,0,0,215.35,14.21Zm-4.72,17.68-12.71-3.07L202,11.88,214.72,15Z" transform="translate(-6.75 -8.23)" fill="#303030"/></g><g opacity="0.08"><path d="M17,131.61l-4.1,1.49a.44.44,0,0,0-.26.56.45.45,0,0,0,.56.26l4.1-1.49a.44.44,0,1,0-.3-.82Z" transform="translate(-6.75 -8.23)" fill="#303030"/><path d="M19.84,130.57l-.41.15a.43.43,0,0,0-.26.55.45.45,0,0,0,.56.27l.41-.15a.44.44,0,0,0,.26-.56A.43.43,0,0,0,19.84,130.57Z" transform="translate(-6.75 -8.23)" fill="#303030"/><path d="M22.59,151.82l-1,.37a1.2,1.2,0,0,0-.71,1.54l.07.2a1.21,1.21,0,0,0,1.54.72l1-.37a1.2,1.2,0,0,0,.72-1.54l-.07-.2A1.21,1.21,0,0,0,22.59,151.82Zm.79,1.22a.32.32,0,0,1-.19.42l-1,.37a.33.33,0,0,1-.42-.2l-.07-.2a.32.32,0,0,1,.19-.42l1-.37a.33.33,0,0,1,.42.2Z" transform="translate(-6.75 -8.23)" fill="#303030"/><path d="M20,129.13l-11,4a1.59,1.59,0,0,0-.94,2l7.87,21.6a1.56,1.56,0,0,0,2,.94l11-4a1.58,1.58,0,0,0,.94-2L22,130.07A1.59,1.59,0,0,0,20,129.13ZM29,152a.71.71,0,0,1-.42.9l-11,4a.72.72,0,0,1-.91-.42L8.88,134.84a.71.71,0,0,1,.42-.9l11-4a.7.7,0,0,1,.9.42L29,152Z" transform="translate(-6.75 -8.23)" fill="#303030"/><path d="M21.93,131.2,8.83,136a.43.43,0,0,0-.26.56l6.26,17.19a.43.43,0,0,0,.55.26l13.1-4.77a.43.43,0,0,0,.26-.56l-6.25-17.19A.44.44,0,0,0,21.93,131.2Zm5.85,17.34L15.5,153l-6-16.37,12.29-4.47Z" transform="translate(-6.75 -8.23)" fill="#303030"/></g><g opacity="0.08"><path d="M181.3,178.78l-4.09,1.49a.43.43,0,0,0-.26.56.43.43,0,0,0,.56.26l4.09-1.49a.43.43,0,0,0,.26-.56A.44.44,0,0,0,181.3,178.78Z" transform="translate(-6.75 -8.23)" fill="#303030"/><path d="M184.17,177.74l-.41.15a.43.43,0,0,0-.26.56.44.44,0,0,0,.56.26l.41-.15a.45.45,0,0,0,.26-.56A.44.44,0,0,0,184.17,177.74Z" transform="translate(-6.75 -8.23)" fill="#303030"/><path d="M186.92,199l-1,.37a1.21,1.21,0,0,0-.72,1.54l.07.2a1.21,1.21,0,0,0,1.54.72l1-.37a1.21,1.21,0,0,0,.72-1.54l-.07-.2A1.21,1.21,0,0,0,186.92,199Zm.79,1.22a.33.33,0,0,1-.2.42l-1,.37a.33.33,0,0,1-.42-.2l-.07-.2a.33.33,0,0,1,.2-.42l1-.37a.35.35,0,0,1,.43.2Z" transform="translate(-6.75 -8.23)" fill="#303030"/><path d="M184.29,176.3l-11,4a1.58,1.58,0,0,0-.94,2l7.86,21.6a1.58,1.58,0,0,0,2,1l11-4a1.58,1.58,0,0,0,.94-2l-7.86-21.61A1.59,1.59,0,0,0,184.29,176.3Zm9.06,22.85a.71.71,0,0,1-.42.9l-11,4a.71.71,0,0,1-.9-.42L173.21,182a.69.69,0,0,1,.42-.9l11-4a.71.71,0,0,1,.9.42l7.86,21.61Z" transform="translate(-6.75 -8.23)" fill="#303030"/><path d="M186.25,178.37l-13.1,4.77a.44.44,0,0,0-.26.56l6.26,17.19a.43.43,0,0,0,.56.26l13.1-4.77a.44.44,0,0,0,.26-.56l-6.26-17.19A.43.43,0,0,0,186.25,178.37Zm5.85,17.34-12.28,4.47-6-16.37,12.28-4.47Z" transform="translate(-6.75 -8.23)" fill="#303030"/></g><g opacity="0.08"><path d="M120.63,50.61l-1.35,1.92a.29.29,0,0,1-.39.07l-1.59-1.13-1,1.37,1.6,1.12a.28.28,0,0,1,.07.39l-1.35,1.92.3.55,4.3-6.11Z" transform="translate(-6.75 -8.23)" fill="#303030"/><path d="M103.37,50.89l7.71-11,8.22,5.78-7.71,11Z" transform="translate(-6.75 -8.23)" fill="#303030"/><path d="M110.81,38.38l-9,12.78,10,7.07,9-12.79Zm9,7a.29.29,0,0,1,.07.39l-8,11.41a.28.28,0,0,1-.39.07l-8.68-6.11a.27.27,0,0,1-.06-.38l8-11.42a.27.27,0,0,1,.38-.06Z" transform="translate(-6.75 -8.23)" fill="#303030"/></g><g opacity="0.08"><path d="M239.61,34.46l-2.26-.61a.28.28,0,0,1-.2-.34l.5-1.89L236,31.19l-.51,1.89a.27.27,0,0,1-.34.19l-2.26-.6-.41.47,7.21,1.93Z" transform="translate(-6.75 -8.23)" fill="#303030"/><path d="M233.41,18.35l12.94,3.47-2.6,9.7-12.94-3.46Z" transform="translate(-6.75 -8.23)" fill="#303030"/><path d="M247.72,21,232.62,17l-3.18,11.87,15.1,4Zm-3.5,10.91a.28.28,0,0,1-.35.19L230.4,28.52a.28.28,0,0,1-.2-.34l2.74-10.24a.28.28,0,0,1,.34-.2l13.48,3.61a.28.28,0,0,1,.2.34Z" transform="translate(-6.75 -8.23)" fill="#303030"/></g><g opacity="0.08"><path d="M104.61,148.19l-2.18.83a.27.27,0,0,1-.36-.16l-.7-1.82-1.56.59.69,1.83a.29.29,0,0,1-.16.36l-2.19.83-.06.62,7-2.65Z" transform="translate(-6.75 -8.23)" fill="#303030"/><path d="M90.16,138.75,102.69,134l3.57,9.39-12.53,4.76Z" transform="translate(-6.75 -8.23)" fill="#303030"/><path d="M103.34,132.56l-14.62,5.55,4.36,11.48L107.7,144Zm3.54,10.89a.28.28,0,0,1-.16.36l-13,5a.29.29,0,0,1-.36-.16l-3.77-9.92a.29.29,0,0,1,.17-.36l13-5a.27.27,0,0,1,.36.16Z" transform="translate(-6.75 -8.23)" fill="#303030"/></g><g opacity="0.08"><path d="M189.31,160.2l-2.33-.14a.28.28,0,0,1-.26-.3l.12-1.95-1.67-.1-.12,1.95a.29.29,0,0,1-.3.26l-2.34-.14-.31.54,7.46.45Z" transform="translate(-6.75 -8.23)" fill="#303030"/><path d="M180,145.65l13.37.82-.61,10-13.37-.82Z" transform="translate(-6.75 -8.23)" fill="#303030"/><path d="M194.59,145.42l-15.6-.95-.75,12.25,15.6,1Zm-1.26,11.39a.28.28,0,0,1-.3.26l-13.93-.85a.28.28,0,0,1-.26-.3l.65-10.58a.3.3,0,0,1,.3-.27l13.93.86a.28.28,0,0,1,.26.3Z" transform="translate(-6.75 -8.23)" fill="#303030"/></g><g opacity="0.08"><path d="M121.69,211.31l-2.33-.14a.3.3,0,0,1-.27-.3l.12-2-1.67-.1-.12,2a.28.28,0,0,1-.29.26l-2.34-.14-.31.54,7.46.45Z" transform="translate(-6.75 -8.23)" fill="#303030"/><path d="M112.41,196.76l13.37.82-.61,10-13.37-.82Z" transform="translate(-6.75 -8.23)" fill="#303030"/><path d="M127,196.53l-15.6-.95-.76,12.25,15.6,1Zm-1.26,11.39a.28.28,0,0,1-.3.26l-13.93-.85a.28.28,0,0,1-.26-.3l.65-10.58a.28.28,0,0,1,.3-.27l13.93.86a.28.28,0,0,1,.26.29Z" transform="translate(-6.75 -8.23)" fill="#303030"/></g><g opacity="0.08"><path d="M77,63.56a7.06,7.06,0,0,0-4.21-3.21,7.39,7.39,0,0,0-5.69.45,6.87,6.87,0,0,0-3.62,4.34,7.11,7.11,0,0,0,.49,5.53,7.5,7.5,0,0,0,4.76,3.7,10.47,10.47,0,0,0,4.26.39A.89.89,0,1,0,72.76,73a8.71,8.71,0,0,1-3.57-.29,5.32,5.32,0,0,1-3.54-2.81,5.58,5.58,0,0,1-.29-4.15,5.51,5.51,0,0,1,2.71-3.4,5.26,5.26,0,0,1,4.22-.4,5.15,5.15,0,0,1,3.06,2.33,4.29,4.29,0,0,1,.43,3.63,3.81,3.81,0,0,1-1.31,2,1.83,1.83,0,0,1-1.61.47.36.36,0,0,1-.26-.52c.07-.22.17-.47.29-.76l1.85-4.17-1.82-.55-.25.39a2.5,2.5,0,0,0-1.35-1,3,3,0,0,0-2.57.36A4.59,4.59,0,0,0,67,69.34,2.63,2.63,0,0,0,68.72,71a2.37,2.37,0,0,0,2.06-.34A1.92,1.92,0,0,0,72.17,72a3.68,3.68,0,0,0,3.2-.55,5.27,5.27,0,0,0,2.19-3A5.81,5.81,0,0,0,77,63.56Zm-6.2,5.27a1.45,1.45,0,0,1-1.35.3.86.86,0,0,1-.59-.7,2.82,2.82,0,0,1,.91-2.58,1.22,1.22,0,0,1,1.14-.24,1.28,1.28,0,0,1,.77.68,1.54,1.54,0,0,1,.06,1.2A2.52,2.52,0,0,1,70.75,68.83Z" transform="translate(-6.75 -8.23)" fill="#303030"/></g><g opacity="0.08"><path d="M189.24,56.14A7.06,7.06,0,0,0,185,52.93a7.38,7.38,0,0,0-5.69.45,6.89,6.89,0,0,0-3.63,4.34,7.16,7.16,0,0,0,.5,5.53A7.47,7.47,0,0,0,181,67a10.47,10.47,0,0,0,4.26.39.89.89,0,1,0-.19-1.77,8.9,8.9,0,0,1-3.57-.29,5.37,5.37,0,0,1-3.54-2.81,5.68,5.68,0,0,1-.29-4.15,5.55,5.55,0,0,1,2.71-3.4,5.26,5.26,0,0,1,4.22-.4,5.14,5.14,0,0,1,3.07,2.33,4.32,4.32,0,0,1,.43,3.63,3.76,3.76,0,0,1-1.32,2,1.82,1.82,0,0,1-1.61.47.36.36,0,0,1-.25-.52c.07-.22.16-.47.28-.76L187,57.5,185.21,57l-.25.38a2.48,2.48,0,0,0-1.35-1,3.05,3.05,0,0,0-2.58.36,4.6,4.6,0,0,0-1.72,5.26,2.62,2.62,0,0,0,1.7,1.6,2.34,2.34,0,0,0,2.06-.33,1.92,1.92,0,0,0,1.39,1.35,3.69,3.69,0,0,0,3.19-.55,5.32,5.32,0,0,0,2.2-3A5.81,5.81,0,0,0,189.24,56.14ZM183,61.41a1.5,1.5,0,0,1-1.36.3.85.85,0,0,1-.58-.7,2.38,2.38,0,0,1,.08-1.28,2.46,2.46,0,0,1,.82-1.3,1.23,1.23,0,0,1,1.14-.24,1.27,1.27,0,0,1,.78.68,1.54,1.54,0,0,1,.06,1.2A2.58,2.58,0,0,1,183,61.41Z" transform="translate(-6.75 -8.23)" fill="#303030"/></g><g opacity="0.08"><path d="M107.56,173.24a7.06,7.06,0,0,0-4.21-3.22,7.5,7.5,0,0,0-5.7.45A7,7,0,0,0,94,174.82a7.13,7.13,0,0,0,.49,5.52,7.51,7.51,0,0,0,4.76,3.71,10.35,10.35,0,0,0,4.27.38.89.89,0,1,0-.19-1.76,8.9,8.9,0,0,1-3.57-.29,5.4,5.4,0,0,1-3.54-2.81,5.63,5.63,0,0,1-.29-4.15,5.52,5.52,0,0,1,2.71-3.4,5.55,5.55,0,0,1,7.29,1.92,4.35,4.35,0,0,1,.43,3.64,3.76,3.76,0,0,1-1.32,2,1.83,1.83,0,0,1-1.61.47.36.36,0,0,1-.25-.52,6.77,6.77,0,0,1,.28-.76l1.86-4.17-1.83-.56-.24.39a2.42,2.42,0,0,0-1.36-1,3.07,3.07,0,0,0-2.57.35A4.65,4.65,0,0,0,97.62,179a2.66,2.66,0,0,0,1.7,1.6,2.4,2.4,0,0,0,2.06-.33,2,2,0,0,0,1.39,1.35,3.71,3.71,0,0,0,3.2-.55,5.4,5.4,0,0,0,2.2-3A5.88,5.88,0,0,0,107.56,173.24Zm-6.21,5.27a1.5,1.5,0,0,1-1.35.3.9.9,0,0,1-.59-.71,2.82,2.82,0,0,1,.91-2.57,1.21,1.21,0,0,1,1.91.43,1.54,1.54,0,0,1,.07,1.2A2.62,2.62,0,0,1,101.35,178.51Z" transform="translate(-6.75 -8.23)" fill="#303030"/></g><g opacity="0.08"><path d="M233.55,161.09a7.08,7.08,0,0,0-4.21-3.21,7.41,7.41,0,0,0-5.7.45,7,7,0,0,0-3.62,4.34,7.15,7.15,0,0,0,.49,5.53,7.51,7.51,0,0,0,4.76,3.71,10.7,10.7,0,0,0,4.27.38.9.9,0,0,0,.8-1,.89.89,0,0,0-1-.8,8.9,8.9,0,0,1-3.57-.29,5.38,5.38,0,0,1-3.54-2.82,5.62,5.62,0,0,1-.29-4.15,5.52,5.52,0,0,1,2.71-3.39A5.55,5.55,0,0,1,232,161.8a4.35,4.35,0,0,1,.43,3.64,3.76,3.76,0,0,1-1.32,2,1.86,1.86,0,0,1-1.61.47.36.36,0,0,1-.25-.52,6.77,6.77,0,0,1,.28-.76l1.86-4.17-1.83-.56-.24.39a2.48,2.48,0,0,0-1.36-1,3.11,3.11,0,0,0-2.57.36,4.61,4.61,0,0,0-1.72,5.27,2.64,2.64,0,0,0,1.7,1.6,2.38,2.38,0,0,0,2.05-.33,1.94,1.94,0,0,0,1.39,1.34,3.64,3.64,0,0,0,3.2-.55,5.34,5.34,0,0,0,2.2-3A5.91,5.91,0,0,0,233.55,161.09Zm-6.21,5.27a1.44,1.44,0,0,1-1.35.3.87.87,0,0,1-.59-.7,2.86,2.86,0,0,1,.91-2.57,1.22,1.22,0,0,1,1.14-.25,1.3,1.3,0,0,1,.78.68,1.58,1.58,0,0,1,.06,1.2A2.56,2.56,0,0,1,227.34,166.36Z" transform="translate(-6.75 -8.23)" fill="#303030"/></g><g opacity="0.08"><path d="M16,85.85a15.1,15.1,0,0,1-1.61,2.65c-.53.66-2.23.24-2.23.24l-.67.82s.76,1.58.23,2.24a15.78,15.78,0,0,1-2.27,2.12C7.76,95.45,8,97,8.82,97.68l1.73,1.4,1.34-1.65s-1.62-1-.82-2c.6-.75.77-.61,2.27-2.12a2.63,2.63,0,0,0,.5-2.47,2.43,2.43,0,0,0,2.24-.91,19,19,0,0,1,1.61-2.66c.81-1,2.22.3,2.22.3l1.34-1.65-1.73-1.4C18.61,83.76,17.12,83.92,16,85.85Z" transform="translate(-6.75 -8.23)" fill="#303030"/><path d="M25.68,93.74a15.78,15.78,0,0,0-2.27,2.12c-.53.66.23,2.24.23,2.24l-.66.82s-1.71-.42-2.24.23a15.19,15.19,0,0,0-1.61,2.66c-1.16,1.93-2.73,2-3.56,1.35l-1.73-1.41,1.34-1.64s1.35,1.37,2.15.38c.6-.74.44-.88,1.61-2.66a2.62,2.62,0,0,1,2.31-1,2.45,2.45,0,0,1,.43-2.38c1.5-1.52,1.67-1.38,2.27-2.12.8-1-.75-2.11-.75-2.11l1.34-1.65L26.27,90C27.18,90.72,27.33,92.21,25.68,93.74Z" transform="translate(-6.75 -8.23)" fill="#303030"/></g><g opacity="0.08"><path d="M101.2,20.61a15.47,15.47,0,0,1,3,.55c.81.27,1,2,1,2l1,.33s1.2-1.29,2-1a15.25,15.25,0,0,1,2.79,1.35c2,1,3.39.22,3.72-.79l.69-2.12-2-.66s-.39,1.88-1.6,1.49c-.91-.3-.84-.5-2.79-1.36a2.64,2.64,0,0,0-2.48.42A2.47,2.47,0,0,0,104.94,19a18,18,0,0,1-3-.55c-1.21-.39-.52-2.17-.52-2.17l-2-.66-.69,2.12C98.3,18.89,99,20.22,101.2,20.61Z" transform="translate(-6.75 -8.23)" fill="#303030"/><path d="M105.08,8.71a15.3,15.3,0,0,0,2.79,1.36c.81.26,2-1,2-1l1,.33s.22,1.74,1,2a14.87,14.87,0,0,0,3.06.55c2.22.39,2.86,1.83,2.54,2.84l-.7,2.12-2-.66s.79-1.75-.42-2.15c-.91-.29-1-.09-3.06-.55a2.61,2.61,0,0,1-1.75-1.8,2.45,2.45,0,0,1-2.38.46c-2-.86-1.89-1.06-2.79-1.36-1.21-.4-1.7,1.45-1.7,1.45l-2-.65.69-2.12C101.72,8.4,103.06,7.72,105.08,8.71Z" transform="translate(-6.75 -8.23)" fill="#303030"/></g><g opacity="0.08"><path d="M219,89.22a14.72,14.72,0,0,1-.52,3.06c-.25.81-2,1-2,1l-.32,1s1.29,1.19,1,2a14.91,14.91,0,0,1-1.33,2.8c-1,2-.18,3.4.83,3.72l2.13.67.64-2s-1.89-.37-1.5-1.58c.28-.91.49-.85,1.33-2.81a2.63,2.63,0,0,0-.45-2.47c.77-.32,1.57-.73,1.76-1.68a18.05,18.05,0,0,1,.52-3.06c.38-1.21,2.17-.54,2.17-.54l.64-2-2.13-.67C220.68,86.31,219.35,87,219,89.22Z" transform="translate(-6.75 -8.23)" fill="#303030"/><path d="M230.92,93a14.7,14.7,0,0,0-1.33,2.81c-.26.81,1,2,1,2l-.32,1s-1.74.23-2,1a15.66,15.66,0,0,0-.52,3.06c-.37,2.22-1.8,2.88-2.81,2.56l-2.13-.67.64-2s1.76.78,2.14-.44c.29-.91.09-1,.52-3.06a2.63,2.63,0,0,1,1.79-1.77,2.46,2.46,0,0,1-.48-2.37c.85-2,1-1.9,1.34-2.81.38-1.21-1.47-1.69-1.47-1.69l.64-2,2.12.67C231.2,89.63,231.89,91,230.92,93Z" transform="translate(-6.75 -8.23)" fill="#303030"/></g><g opacity="0.08"><path d="M7.26,209.92a15.05,15.05,0,0,1,1.41,2.77c.27.8-1,2-1,2l.34,1s1.75.19,2,1a15.25,15.25,0,0,1,.6,3.05c.42,2.21,1.87,2.83,2.87,2.48l2.11-.72-.69-2s-1.74.83-2.15-.38c-.31-.9-.11-1-.6-3.05a2.63,2.63,0,0,0-1.83-1.72,2.45,2.45,0,0,0,.41-2.39,18.91,18.91,0,0,1-1.4-2.77c-.42-1.2,1.42-1.72,1.42-1.72l-.69-2-2.1.73C6.89,206.57,6.24,207.91,7.26,209.92Z" transform="translate(-6.75 -8.23)" fill="#303030"/><path d="M19.1,205.84a15.25,15.25,0,0,0,.6,3c.27.8,2,1,2,1l.35,1s-1.27,1.22-1,2a15.32,15.32,0,0,0,1.4,2.77c1,2,.27,3.39-.73,3.73l-2.11.73-.69-2s1.88-.42,1.46-1.62c-.31-.91-.51-.84-1.4-2.77a2.63,2.63,0,0,1,.38-2.49,2.44,2.44,0,0,1-1.8-1.63c-.49-2.07-.29-2.14-.6-3-.41-1.21-2.18-.48-2.18-.48l-.69-2,2.1-.73C17.33,203,18.67,203.63,19.1,205.84Z" transform="translate(-6.75 -8.23)" fill="#303030"/></g><g opacity="0.08"><path d="M137.85,225.35a15.29,15.29,0,0,1,2.48,1.86c.61.6,0,2.25,0,2.25l.75.75s1.65-.6,2.25,0a15.83,15.83,0,0,1,1.89,2.47c1.36,1.8,2.93,1.72,3.68,1l1.57-1.58L149,230.56s-1.19,1.5-2.1.61c-.67-.68-.52-.83-1.88-2.47a2.61,2.61,0,0,0-2.4-.74,2.45,2.45,0,0,0-.69-2.33,19.59,19.59,0,0,1-2.48-1.86c-.9-.9.52-2.18.52-2.18l-1.51-1.49-1.57,1.58C136,222.5,136.05,224,137.85,225.35Z" transform="translate(-6.75 -8.23)" fill="#303030"/><path d="M146.67,216.46a15.46,15.46,0,0,0,1.88,2.47c.61.6,2.25,0,2.25,0l.76.74s-.6,1.65,0,2.25a14.92,14.92,0,0,0,2.48,1.87c1.8,1.34,1.73,2.92,1,3.67L153.47,229,152,227.55s1.5-1.21.59-2.11c-.67-.67-.82-.52-2.48-1.86a2.64,2.64,0,0,1-.76-2.4,2.45,2.45,0,0,1-2.33-.67c-1.35-1.64-1.2-1.79-1.88-2.46-.9-.9-2.17.53-2.17.53l-1.51-1.5L143,215.5C143.81,214.68,145.31,214.67,146.67,216.46Z" transform="translate(-6.75 -8.23)" fill="#303030"/></g><g opacity="0.08"><path d="M52.18,158.1a14.73,14.73,0,0,1,.52,3.06c0,.85-1.53,1.65-1.53,1.65l0,1.06s1.62.69,1.65,1.53a15.45,15.45,0,0,1-.33,3.09c-.24,2.24,1,3.26,2,3.23l2.23-.08-.07-2.12s-1.91.28-2-1c0-1,.18-1,.33-3.08a2.65,2.65,0,0,0-1.24-2.19,2.46,2.46,0,0,0,1.09-2.16,18.34,18.34,0,0,1-.52-3.06c0-1.27,1.87-1.23,1.87-1.23l-.08-2.12-2.22.07C52.81,154.79,51.79,155.89,52.18,158.1Z" transform="translate(-6.75 -8.23)" fill="#303030"/><path d="M64.69,157.69a14.74,14.74,0,0,0-.32,3.09c0,.85,1.64,1.53,1.64,1.53l0,1.07s-1.56.79-1.53,1.64a15.43,15.43,0,0,0,.52,3.06c.39,2.21-.74,3.31-1.8,3.35L61,171.5l-.07-2.12s1.91.15,1.87-1.12c0-1-.24-.95-.53-3.06a2.66,2.66,0,0,1,1.1-2.27,2.44,2.44,0,0,1-1.24-2.08c.14-2.13.35-2.13.32-3.09,0-1.27-1.94-1.1-1.94-1.1l-.07-2.12,2.22-.07C63.84,154.43,64.93,155.45,64.69,157.69Z" transform="translate(-6.75 -8.23)" fill="#303030"/></g><g opacity="0.08"><path d="M97.91,85.24l-11.6,2.48,5,23.59,17.31-3.69-3.82-17.89Zm1,2.59,2.72,1.77-2.25.47ZM92.58,109.4,88.22,89l8.92-1.9,1,4.93,5.24-1.12,3.31,15.52Z" transform="translate(-6.75 -8.23)" fill="#303030"/><path d="M95.53,96.41l-3.32,5.12,5.13,3.33.87-1.35-3.78-2.45,2.45-3.78Z" transform="translate(-6.75 -8.23)" fill="#303030"/><path d="M97.87,97.07l3.78,2.45L99.2,103.3l1.34.87,3.33-5.12-5.13-3.33Z" transform="translate(-6.75 -8.23)" fill="#303030"/></g><g opacity="0.08"><path d="M192.4,102.48l-8.79-8-16.19,17.89,13.12,11.87,12.27-13.56Zm-1.49,2.35.16,3.24-1.7-1.54Zm-21.21,7.46,14-15.5,6.75,6.12-3.38,3.74,4,3.59L180.43,122Z" transform="translate(-6.75 -8.23)" fill="#303030"/><path d="M182,107.08l-6.1.31.3,6.1,1.61-.08-.23-4.5,4.5-.22Z" transform="translate(-6.75 -8.23)" fill="#303030"/><path d="M182.79,109.37l.22,4.49-4.5.23.08,1.6,6.11-.3-.31-6.1Z" transform="translate(-6.75 -8.23)" fill="#303030"/></g><g opacity="0.08"><path d="M62.18,217.19l-11.5-2.89L44.8,237.7,62,242l4.45-17.74ZM62,220l1.66,2.79-2.22-.56ZM46.75,236.53l5.09-20.28,8.84,2.22-1.22,4.89,5.19,1.3-3.86,15.39Z" transform="translate(-6.75 -8.23)" fill="#303030"/><path d="M55.13,226.16l-5.25,3.14L53,234.54l1.38-.82-2.31-3.87L56,227.54Z" transform="translate(-6.75 -8.23)" fill="#303030"/><path d="M56.93,227.79l2.31,3.86L55.38,234l.82,1.38,5.25-3.14L58.31,227Z" transform="translate(-6.75 -8.23)" fill="#303030"/></g><g opacity="0.08"><path d="M192.38,223l-10-6.28-12.78,20.46,15,9.37,9.69-15.51Zm-1,2.58.73,3.16-1.95-1.21Zm-19.57,11.09L182.84,219l7.73,4.82-2.67,4.28,4.54,2.84L184,244.34Z" transform="translate(-6.75 -8.23)" fill="#303030"/><path d="M182.92,229.38l-6,1.38,1.38,6,1.56-.36-1-4.39,4.39-1Z" transform="translate(-6.75 -8.23)" fill="#303030"/><path d="M184.13,231.49l1,4.38-4.38,1,.36,1.56,5.95-1.37-1.37-6Z" transform="translate(-6.75 -8.23)" fill="#303030"/></g></svg>