<svg xmlns="http://www.w3.org/2000/svg" xmlns:xlink="http://www.w3.org/1999/xlink" width="1920" height="1080" viewBox="0 0 1920 1080"><defs><linearGradient id="a" x1="956.83" y1="349.2" x2="964.83" y2="831.2" gradientUnits="userSpaceOnUse"><stop offset="0" stop-color="#f2f2f2"/><stop offset="0.41" stop-color="#fafafa"/><stop offset="1" stop-color="#fff"/></linearGradient><linearGradient id="b" x1="293.91" y1="2790.99" x2="2213.91" y2="2790.99" gradientTransform="translate(-293.91 -2250.99)" gradientUnits="userSpaceOnUse"><stop offset="0" stop-color="#efc539"/><stop offset="1" stop-color="#da0d6a"/></linearGradient><clipPath id="c"><rect x="1.8" width="1916.57" height="1078.8" fill="none"/></clipPath><clipPath id="d"><rect x="-103.86" y="0.51" width="2127.73" height="1079.3" fill="none"/></clipPath><linearGradient id="e" x1="3380.43" y1="1564.99" x2="2261.67" y2="-372.77" gradientTransform="translate(1299.52 -2577.51) rotate(90)" xlink:href="#b"/><linearGradient id="f" x1="3591.25" y1="1367.57" x2="2072.42" y2="-151.26" gradientTransform="translate(1299.52 -2577.51) rotate(90)" xlink:href="#b"/><linearGradient id="g" x1="3585.85" y1="1209.08" x2="2067.01" y2="-309.75" gradientTransform="translate(1299.52 -2577.51) rotate(90)" xlink:href="#b"/><linearGradient id="h" x1="3656.08" y1="913.71" x2="2137.25" y2="-605.12" gradientTransform="translate(1299.52 -2577.51) rotate(90)" xlink:href="#b"/><linearGradient id="i" x1="3059.63" y1="1485.79" x2="3059.63" y2="-500.59" gradientTransform="translate(1299.52 -2577.51) rotate(90)" gradientUnits="userSpaceOnUse"><stop offset="0" stop-color="#efc539"/><stop offset="0.2" stop-color="#efc23a"/><stop offset="0.35" stop-color="#eeb83c"/><stop offset="0.48" stop-color="#eca841"/><stop offset="0.61" stop-color="#e99147"/><stop offset="0.73" stop-color="#e6734f"/><stop offset="0.84" stop-color="#e24f58"/><stop offset="0.95" stop-color="#dd2564"/><stop offset="1" stop-color="#da0d6a"/></linearGradient><linearGradient id="j" x1="1195.1" y1="2872.97" x2="2893.16" y2="2872.97" xlink:href="#b"/><linearGradient id="k" x1="1162.68" y1="2789.23" x2="2860.74" y2="2789.23" xlink:href="#b"/><linearGradient id="l" x1="1210.07" y1="2920.44" x2="2908.13" y2="2920.44" xlink:href="#b"/><linearGradient id="m" x1="124.78" y1="2542.44" x2="1780.92" y2="2542.44" xlink:href="#b"/><linearGradient id="n" x1="152.21" y1="2586.02" x2="1808.36" y2="2586.02" xlink:href="#b"/><linearGradient id="o" x1="-135.95" y1="2467.16" x2="1520.19" y2="2467.16" xlink:href="#b"/><linearGradient id="p" x1="35.77" y1="2552.12" x2="1691.91" y2="2552.12" xlink:href="#b"/><linearGradient id="q" x1="-30.77" y1="2518.22" x2="1625.37" y2="2518.22" xlink:href="#b"/></defs><title>welcome_bg</title><rect x="560" y="240" width="800" height="600" fill="url(#a)"/><rect width="1920" height="1080" fill="url(#b)"/><g clip-path="url(#c)"><g clip-path="url(#d)"><path d="M1853.09-2.69S1171,350.42,1045.3,734.05C877.11,1247.34-269.89,1294.2-119.78,942.13-52,783.22,46.19-205.43,46.19-205.43Z" opacity="0.74" fill="url(#e)"/><path d="M1953.19-2.69S1271.11,350.42,1145.4,734.05C977.21,1247.34-169.8,1294.2-19.68,942.13c67.75-158.91,166-1147.56,166-1147.56Z" opacity="0.74" fill="url(#f)"/><path d="M2111.68-8.09S1429.6,345,1303.89,728.65C1135.7,1241.93-11.3,1288.8,138.81,936.72c67.75-158.91,166-1147.55,166-1147.55Z" opacity="0.74" fill="url(#g)"/><path d="M2407.05,62.15S1725,415.25,1599.26,798.88C1431.07,1312.17,284.06,1359,434.18,1007c67.75-158.91,166-1147.56,166-1147.56Z" opacity="0.48" fill="url(#h)"/><path d="M1800.11-2.69S1118,350.42,992.32,734.05C824.13,1247.34-322.88,1294.2-172.76,942.13-105,783.22-6.79-205.43-6.79-205.43Z" fill="url(#i)"/><g opacity="0.56"><path d="M901.19,1290.92s193.63-558.41,783.6-525S2284.88,90.08,2317.62-47h281.63V1290.92Z" fill="url(#j)"/></g><g opacity="0.26"><path d="M868.77,1207.18s193.63-558.41,783.6-525S2252.46,6.34,2285.2-130.7h281.63V1207.18Z" fill="url(#k)"/></g><path d="M916.16,1338.39s193.63-558.42,783.59-525S2299.84,137.55,2332.59.51h281.63V1338.38Z" fill="url(#l)"/><path d="M-169.13-135.35V700.38s364.92,220.08,749.5-281.67,540.34-441,906.64-584.25Z" fill="url(#m)"/><path d="M-141.7-91.76V744S223.23,964,607.81,462.3s540.34-441,906.64-584.26Z" opacity="0.56" fill="url(#n)"/><path d="M-429.86-210.62V625.11s364.92,220.07,749.5-281.67S860-97.59,1226.28-240.82Z" opacity="0.56" fill="url(#o)"/><path d="M-258.14-125.66V710.07S106.79,930.15,491.37,428.4,1031.7-12.63,1398-155.86Z" opacity="0.74" fill="url(#p)"/><path d="M-324.68-159.56V676.17S40.25,896.25,424.83,394.5s540.33-441,906.63-584.26Z" opacity="0.91" fill="url(#q)"/></g></g></svg>